PathFileType	4	(X/Y/Z)	C:/Users/beibeiliu/ov580/test_trc\sequence.2_training_dense_right.trc
DataRate	CameraRate	NumFrames	NumMarkers	Units	OrigDataRate	OrigDataStartFrame	OrigNumFrames
120	120	10	19	mm	120	1	84
Frame#	Time	ThumbCMC			ThumbMCP			ThumbIP			ThumbTip			IndexMCP			IndexPIP			IndexTip			MiddleMCP			MiddlePIP			MiddleTip			RingMCP			RingPIP			RingTip			PinkyMCP			PinkyPIP			PinkyTip			BackHand1			BackHand2			BackHand3	
		X0	Y0	Z0	X1	Y1	Z1	X2	Y2	Z2	X3	Y3	Z3	X4	Y4	Z4	X5	Y5	Z5	X6	Y6	Z6	X7	Y7	Z7	X8	Y8	Z8	X9	Y9	Z9	X10	Y10	Z10	X11	Y11	Z11	X12	Y12	Z12	X13	Y13	Z13	X14	Y14	Z14	X15	Y15	Z15	X16	Y16	Z16	X17	Y17	Z17	X18	Y18	Z18	
0	0	83.1022	64.0326	98.9551	63.4899	49.1582	76.6495	60.5408	41.2422	52.9725	61.4544	33.1455	33.4985	85.9035	72.7626	31.4066	81.2667	59.6194	7.11368	73.9716	47.2875	-8.14305	110.09	69.8447	24.7615	104.209	59.7941	0.956646	104.157	40.279	-19.8633	126.627	63.955	30.1189	125.688	54.699	6.95623	124.862	40.7343	-12.2173	143.849	57.476	42.4692	149.529	51.7149	24.6832	154.962	46.8014	8.96869	128.08	77.1226	74.7313	128.746	82.2323	102.022	103.531	85.0767	89.6955	
1	0.00833333	80.5221	66.1579	93.2663	67.1997	51.6091	77.1441	61.9609	43.935	50.9345	57.3958	33.8996	34.3272	85.7062	73.7897	30.8298	79.0106	63.2404	6.20823	77.3166	46.4024	-11.5468	106.175	71.9883	25.1748	102.782	59.6516	-2.95173	103.118	42.1555	-22.6348	123.974	65.9478	27.1119	129.769	56.2381	9.09829	123.16	43.1345	-12.4512	142.534	58.8386	42.5124	149.26	53.0376	22.8059	150.097	47.705	4.21632	127.358	78.1062	74.0512	128.446	82.7133	100.718	102.479	87.8653	85.6899	
2	0.0166667	80.0265	67.0746	97.6833	68.1484	53.1017	73.8053	60.5789	45.4121	50.7962	60.4043	37.5222	32.5828	86.5541	74.9338	29.446	79.1095	66.4683	8.62174	78.6216	50.4888	-10.5073	106.183	72.1294	19.267	102.724	61.5905	-3.48929	103.334	42.8765	-24.5465	127.032	66.7591	27.6427	125.821	58.7296	8.20865	123.881	44.7622	-12.0979	143.399	61.2097	40.0299	148.915	54.1592	24.41	150.751	50.6189	6.89989	128.699	79.3375	71.9236	131.896	84.2555	96.7757	105.178	89.1339	86.0807	
3	0.025	79.013	69.5288	92.0497	65.4183	55.2148	73.3878	61.4467	48.4892	46.5728	58.6087	39.0369	28.3536	84.6946	78.7058	28.6738	79.1136	67.1425	2.36886	79.7891	52.6119	-14.709	110.489	75.2293	18.6118	106.759	63.6048	-7.14329	106.162	46.696	-25.6792	125.661	70.6508	23.1789	126.853	60.4257	1.4874	122.546	47.8043	-15.3472	143.393	64.1438	38.7156	147.935	58.3102	23.2925	152.534	51.8978	0.588096	126.237	84.0149	69.5194	130.364	84.6173	97.1678	101.157	90.9238	80.379	
4	0.0333333	78.5474	74.1416	85.7878	67.028	59.9314	67.1301	60.9593	53.4879	42.6404	60.0236	44.5023	22.2505	87.0148	83.506	20.0679	80.0216	75.6847	-0.366317	80.6625	59.6047	-19.2996	107.021	81.8879	17.2244	105.301	69.4041	-11.6971	103.995	55.6518	-30.483	125.848	74.5384	23.2888	124.592	65.3246	-3.87052	123.168	52.9323	-22.4458	144.998	67.1062	36.3825	149.331	62.0346	13.2566	151.887	54.6596	-4.87841	127.864	86.4173	68.0791	134.263	88.8791	92.3498	107.674	93.5641	79.3706	
5	0.0416667	80.6872	79.2348	76.3696	69.9868	66.2919	57.9508	63.2607	59.8285	38.2109	60.3792	52.4529	16.8441	87.0362	91.2775	14.2296	86.5998	82.2559	-10.4627	76.3237	68.5439	-30.198	112.123	87.594	9.34968	110.567	78.5524	-17.1436	105.185	64.2477	-37.3327	127.014	79.6921	11.957	129.771	71.0579	-9.12233	122.468	59.9053	-26.4429	148.026	69.4961	24.9316	148.301	65.9046	8.32897	153.533	56.6466	-14.357	134.055	88.2384	57.7049	133.372	90.6292	82.4977	109.793	98.1382	68.2423	
6	0.05	85.3949	81.149	70.3216	67.9884	70.4705	51.813	60.4666	64.7173	27.6121	58.0667	56.1025	8.7699	92.5921	95.7235	7.69725	85.4986	88.8431	-17.165	85.0309	74.0042	-35.9271	113.495	92.0706	2.1189	111.655	82.5991	-23.5707	107.418	65.5324	-44.7823	134.014	80.561	5.75097	132.619	71.7455	-15.8032	126.435	59.9896	-33.0601	147.099	70.4807	20.4652	151.812	61.5374	-0.468929	150.418	52.9552	-21.4284	134.36	90.5562	54.978	134.229	90.3296	79.1779	111.274	99.5838	63.316	
7	0.0583333	87.2087	81.1273	70.2095	71.3025	71.7704	46.7636	64.7206	66.3641	23.8945	61.9084	58.955	1.94822	95.8834	98.4283	3.44381	93.0643	88.0311	-22.6017	86.4269	73.7072	-41.765	119.816	90.618	-3.34307	115.593	81.1897	-28.7279	111.221	59.4534	-50.038	137.982	78.5828	1.37504	135.827	69.0182	-20.898	124.927	58.8871	-36.1948	150.267	68.454	17.4399	150.873	61.2317	-2.23163	149.778	49.1845	-23.3863	138.055	90.7337	47.342	138.772	88.5716	77.6226	113.685	100.12	62.9976	
8	0.0666667	93.7144	79.8747	63.0468	75.1948	70.1099	44.6558	70.5178	65.2943	23.3884	65.6567	57.6898	1.75728	102.741	96.343	0.592403	97.3171	89.0817	-23.6297	93.2468	73.8274	-39.5937	125.43	89.6074	-3.65864	120.111	76.9804	-31.833	113.703	60.5017	-46.0146	139.506	79.2635	3.62822	136.652	68.8238	-19.813	126.327	51.1685	-37.7242	155.056	65.2724	13.6618	151.074	56.8623	-6.48037	149.344	43.0909	-20.9199	146.349	86.835	47.4588	145.436	84.8141	73.0578	120.969	95.9949	62.0035	
9	0.075	94.1493	79.5386	66.4979	78.2934	68.8098	42.3189	72.3851	64.9241	21.5376	69.6179	57.8914	-2.08616	109.006	95.8374	-0.349308	100.299	89.418	-21.6323	95.0865	67.6294	-39.9413	126.318	90.5311	-7.0653	122.935	75.27	-32.2091	114.441	55.9556	-44.929	143.998	77.9295	2.66255	138.462	67.2361	-20.4092	126.464	48.6513	-33.9501	160.103	62.8698	12.8267	154.682	54.4169	-7.07408	144.807	42.5264	-22.3844	144.056	84.8917	49.2468	147.876	82.9902	71.3828	126.423	95.9212	62.1598	
